<svg xmlns="http://www.w3.org/2000/svg" viewBox="0 0 412.01 232.67"><defs><style>.cls-1{fill:#00aeef;}.cls-2{fill:#fff;}</style></defs><g id="Layer_2" data-name="Layer 2"><g id="Layer_1-2" data-name="Layer 1"><path class="cls-1" d="M225.81,0l67.07,178.22L359.79,0H412V232.51H371.77V155.86l4-102.52L307.09,232.51h-28.9l-68.51-179,4,102.36v76.65H173.43V0Z"/><path class="cls-2" d="M0,232.67V.16H68.67q30.81,0,54.69,13.73a93.67,93.67,0,0,1,37,39q13.1,25.23,13.1,57.81v11.66q0,33-13.18,58.12a92.46,92.46,0,0,1-37.53,38.65q-24.34,13.58-55.81,13.57ZM40.4,32.74V200.42H66.75q31.78,0,48.79-19.89t17.32-57.09V110.51q0-37.85-16.44-57.81t-47.75-20Z"/></g></g></svg>